<svg width="25" height="25" viewBox="0 0 25 25" fill="none" xmlns="http://www.w3.org/2000/svg">
<path fill-rule="evenodd" clip-rule="evenodd" d="M9.5 1.75C9.91421 1.75 10.25 2.08579 10.25 2.5V3.76061C10.9192 3.75 11.6628 3.75 12.4889 3.75H12.5111C13.3372 3.75 14.0808 3.75 14.75 3.76061V2.5C14.75 2.08579 15.0858 1.75 15.5 1.75C15.9142 1.75 16.25 2.08579 16.25 2.5V3.81358C17.7619 3.90837 18.9234 4.15335 19.8798 4.84815C20.3679 5.20281 20.7972 5.63209 21.1518 6.12023C21.7377 6.92656 22 7.87094 22.1263 9.03648C22.25 10.1786 22.25 11.6182 22.25 13.4547V13.5115C22.25 14.6713 22.25 15.6686 22.2206 16.5257C22.1564 18.3991 21.9537 19.7761 21.1518 20.8798C20.7972 21.3679 20.3679 21.7972 19.8798 22.1518C18.7761 22.9537 17.3991 23.1564 15.5257 23.2206C14.6684 23.25 13.671 23.25 12.5108 23.25H12.4547C10.6182 23.25 9.17861 23.25 8.03648 23.1263C6.87094 23 5.92656 22.7377 5.12024 22.1518C4.63209 21.7972 4.20281 21.3679 3.84815 20.8798C3.26232 20.0734 3.00001 19.1291 2.87373 17.9635C2.74999 16.8214 2.74999 15.3818 2.75 13.5452V13.4548C2.74999 11.6182 2.74999 10.1786 2.87373 9.03648C3.00001 7.87094 3.26232 6.92656 3.84815 6.12023C4.20281 5.63209 4.63209 5.20281 5.12024 4.84815C6.07655 4.15335 7.23808 3.90837 8.75 3.81358V2.5C8.75 2.08579 9.08579 1.75 9.5 1.75ZM8.75 5.31725C7.38795 5.41092 6.60177 5.62585 6.00191 6.06168C5.64111 6.32382 5.32382 6.64111 5.06168 7.00191C4.69259 7.50992 4.47745 8.16013 4.365 9.19804C4.25103 10.25 4.25 11.6084 4.25 13.5C4.25 15.3916 4.25103 16.75 4.365 17.802C4.47745 18.8399 4.69259 19.4901 5.06168 19.9981C5.32382 20.3589 5.64111 20.6762 6.00191 20.9383C6.50992 21.3074 7.16013 21.5225 8.19805 21.635C9.24999 21.749 10.6084 21.75 12.5 21.75C13.3483 21.75 14.0918 21.7499 14.7518 21.7392C14.7562 21.2645 14.771 20.9151 14.8208 20.6005C15.2105 18.1401 17.1401 16.2105 19.6005 15.8208C19.9151 15.771 20.2645 15.7562 20.7392 15.7518C20.75 15.0918 20.75 14.3483 20.75 13.5C20.75 11.6084 20.749 10.25 20.635 9.19804C20.5225 8.16013 20.3074 7.50992 19.9383 7.00191C19.6762 6.64111 19.3589 6.32382 18.9981 6.06168C18.3982 5.62585 17.6121 5.41092 16.25 5.31725V5.5C16.25 5.91421 15.9142 6.25 15.5 6.25C15.0858 6.25 14.75 5.91421 14.75 5.5V5.26079C14.0904 5.25005 13.3476 5.25 12.5 5.25C11.6524 5.25 10.9096 5.25005 10.25 5.26079V5.5C10.25 5.91421 9.91421 6.25 9.5 6.25C9.08579 6.25 8.75 5.91421 8.75 5.5V5.31725ZM20.6826 17.2528C20.2776 17.2575 20.0402 17.2699 19.8352 17.3023C18.0166 17.5904 16.5904 19.0166 16.3023 20.8352C16.2699 21.0402 16.2575 21.2776 16.2528 21.6826C17.6131 21.5888 18.3986 21.3738 18.9981 20.9383C19.3589 20.6762 19.6762 20.3589 19.9383 19.9981C20.3739 19.3986 20.5888 18.6131 20.6826 17.2528Z" fill="black"/>
<path d="M8.5 9.5C8.5 10.0523 8.05229 10.5 7.5 10.5C6.94772 10.5 6.5 10.0523 6.5 9.5C6.5 8.94772 6.94772 8.5 7.5 8.5C8.05229 8.5 8.5 8.94772 8.5 9.5Z" fill="black"/>
<path d="M8.5 13.5C8.5 14.0523 8.05229 14.5 7.5 14.5C6.94772 14.5 6.5 14.0523 6.5 13.5C6.5 12.9477 6.94772 12.5 7.5 12.5C8.05229 12.5 8.5 12.9477 8.5 13.5Z" fill="black"/>
<path d="M13.5 9.5C13.5 10.0523 13.0523 10.5 12.5 10.5C11.9477 10.5 11.5 10.0523 11.5 9.5C11.5 8.94772 11.9477 8.5 12.5 8.5C13.0523 8.5 13.5 8.94772 13.5 9.5Z" fill="black"/>
<path d="M13.5 13.5C13.5 14.0523 13.0523 14.5 12.5 14.5C11.9477 14.5 11.5 14.0523 11.5 13.5C11.5 12.9477 11.9477 12.5 12.5 12.5C13.0523 12.5 13.5 12.9477 13.5 13.5Z" fill="black"/>
<path d="M13.5 17.5C13.5 18.0523 13.0523 18.5 12.5 18.5C11.9477 18.5 11.5 18.0523 11.5 17.5C11.5 16.9477 11.9477 16.5 12.5 16.5C13.0523 16.5 13.5 16.9477 13.5 17.5Z" fill="black"/>
<path d="M18.5 9.5C18.5 10.0523 18.0523 10.5 17.5 10.5C16.9477 10.5 16.5 10.0523 16.5 9.5C16.5 8.94772 16.9477 8.5 17.5 8.5C18.0523 8.5 18.5 8.94772 18.5 9.5Z" fill="black"/>
<path d="M18.5 13.5C18.5 14.0523 18.0523 14.5 17.5 14.5C16.9477 14.5 16.5 14.0523 16.5 13.5C16.5 12.9477 16.9477 12.5 17.5 12.5C18.0523 12.5 18.5 12.9477 18.5 13.5Z" fill="black"/>
<path d="M8.5 17.5C8.5 18.0523 8.05229 18.5 7.5 18.5C6.94772 18.5 6.5 18.0523 6.5 17.5C6.5 16.9477 6.94772 16.5 7.5 16.5C8.05229 16.5 8.5 16.9477 8.5 17.5Z" fill="black"/>
</svg>
