<svg width="25" height="25" viewBox="0 0 25 25" fill="none" xmlns="http://www.w3.org/2000/svg">
<path d="M13.25 7.5C13.25 7.08579 12.9142 6.75 12.5 6.75C12.0858 6.75 11.75 7.08579 11.75 7.5V17.5C11.75 17.9142 12.0858 18.25 12.5 18.25C12.9142 18.25 13.25 17.9142 13.25 17.5V7.5Z" fill="black"/>
<path d="M17.25 11.5C17.25 11.0858 16.9142 10.75 16.5 10.75C16.0858 10.75 15.75 11.0858 15.75 11.5V17.5C15.75 17.9142 16.0858 18.25 16.5 18.25C16.9142 18.25 17.25 17.9142 17.25 17.5V11.5Z" fill="black"/>
<path d="M9.25 13.5C9.25 13.0858 8.91421 12.75 8.5 12.75C8.08579 12.75 7.75 13.0858 7.75 13.5V17.5C7.75 17.9142 8.08579 18.25 8.5 18.25C8.91421 18.25 9.25 17.9142 9.25 17.5V13.5Z" fill="black"/>
<path fill-rule="evenodd" clip-rule="evenodd" d="M16.9635 2.87373C15.8214 2.74999 14.3818 2.74999 12.5452 2.75H12.4548C10.6182 2.74999 9.17861 2.74999 8.03648 2.87373C6.87094 3.00001 5.92656 3.26232 5.12024 3.84815C4.63209 4.20281 4.20281 4.63209 3.84815 5.12024C3.26232 5.92656 3.00001 6.87094 2.87373 8.03648C2.74999 9.17861 2.74999 10.6182 2.75 12.4548V12.5452C2.74999 14.3818 2.74999 15.8214 2.87373 16.9635C3.00001 18.1291 3.26232 19.0734 3.84815 19.8798C4.20281 20.3679 4.63209 20.7972 5.12024 21.1518C5.92656 21.7377 6.87094 22 8.03648 22.1263C9.17859 22.25 10.6182 22.25 12.4547 22.25H12.5453C14.3818 22.25 15.8214 22.25 16.9635 22.1263C18.1291 22 19.0734 21.7377 19.8798 21.1518C20.3679 20.7972 20.7972 20.3679 21.1518 19.8798C21.7377 19.0734 22 18.1291 22.1263 16.9635C22.25 15.8214 22.25 14.3818 22.25 12.5453V12.4547C22.25 10.6182 22.25 9.17859 22.1263 8.03648C22 6.87094 21.7377 5.92656 21.1518 5.12024C20.7972 4.63209 20.3679 4.20281 19.8798 3.84815C19.0734 3.26232 18.1291 3.00001 16.9635 2.87373ZM6.00191 5.06168C6.50992 4.69259 7.16013 4.47745 8.19804 4.365C9.24999 4.25103 10.6084 4.25 12.5 4.25C14.3916 4.25 15.75 4.25103 16.802 4.365C17.8399 4.47745 18.4901 4.69259 18.9981 5.06168C19.3589 5.32382 19.6762 5.64111 19.9383 6.00191C20.3074 6.50992 20.5225 7.16013 20.635 8.19804C20.749 9.24999 20.75 10.6084 20.75 12.5C20.75 14.3916 20.749 15.75 20.635 16.802C20.5225 17.8399 20.3074 18.4901 19.9383 18.9981C19.6762 19.3589 19.3589 19.6762 18.9981 19.9383C18.4901 20.3074 17.8399 20.5225 16.802 20.635C15.75 20.749 14.3916 20.75 12.5 20.75C10.6084 20.75 9.24999 20.749 8.19804 20.635C7.16013 20.5225 6.50992 20.3074 6.00191 19.9383C5.64111 19.6762 5.32382 19.3589 5.06168 18.9981C4.69259 18.4901 4.47745 17.8399 4.365 16.802C4.25103 15.75 4.25 14.3916 4.25 12.5C4.25 10.6084 4.25103 9.24999 4.365 8.19804C4.47745 7.16013 4.69259 6.50992 5.06168 6.00191C5.32382 5.64111 5.64111 5.32382 6.00191 5.06168Z" fill="black"/>
</svg>
