<svg width="24" height="24" viewBox="0 0 24 24" fill="none" xmlns="http://www.w3.org/2000/svg">
<g clip-path="url(#clip0_3_76)">
<path d="M12 24C18.6274 24 24 18.6275 24 12C24 5.37262 18.6274 3.8147e-05 12 3.8147e-05C5.37258 3.8147e-05 0 5.37262 0 12C0 18.6275 5.37258 24 12 24Z" fill="#0560FD"/>
<path d="M15.9019 3.68337H13.2436C11.6661 3.68337 9.9114 4.34685 9.9114 6.63353C9.9191 7.4303 9.9114 8.19337 9.9114 9.05216H8.08643V11.9562H9.96788V20.3166H13.4251V11.9011H15.7071L15.9135 9.04401H13.3656C13.3656 9.04401 13.3713 7.77307 13.3656 7.40398C13.3656 6.50033 14.3058 6.55208 14.3624 6.55208C14.8098 6.55208 15.6798 6.55339 15.9032 6.55208V3.68337H15.9019Z" fill="white"/>
</g>
<defs>
<clipPath id="clip0_3_76">
<rect width="24" height="24" fill="white"/>
</clipPath>
</defs>
</svg>
